<svg width="20" height="20" viewBox="0 0 20 20" fill="none" xmlns="http://www.w3.org/2000/svg">
                                <path
                                    fill-rule="evenodd"
                                    clip-rule="evenodd"
                                    d="M17.5888 12.8998C17.2186 12.5832 17.0054 12.1204 17.0055 11.6332V7.6165C17.0055 4.32484 14.0221 1.6665 10.3388 1.6665C6.65547 1.6665 3.67214 4.32484 3.67214 7.6165V11.6332C3.67217 12.1204 3.45904 12.5832 3.08881 12.8998C1.83047 14.0248 2.72214 15.9415 4.50547 15.9415H7.67214C8.07617 17.0668 9.14314 17.8174 10.3388 17.8174C11.5345 17.8174 12.6014 17.0668 13.0055 15.9415H16.1721C17.9555 15.9415 18.8471 14.0248 17.5888 12.8998ZM10.3388 16.5665C9.8428 16.5646 9.3754 16.334 9.07214 15.9415H11.5721C11.2785 16.3278 10.824 16.5582 10.3388 16.5665ZM16.1805 14.6915C16.4834 14.7189 16.7719 14.5565 16.9055 14.2832C16.9703 14.1185 16.9113 13.931 16.7638 13.8332C16.1359 13.2731 15.7729 12.4745 15.7638 11.6332V7.6165C15.7638 5.02484 13.3305 2.9165 10.3471 2.9165C7.36381 2.9165 4.93047 5.02484 4.93047 7.6165V11.6332C4.92133 12.4745 4.55834 13.2731 3.93047 13.8332C3.77991 13.9285 3.7172 14.1166 3.78047 14.2832C3.91405 14.5565 4.20251 14.7189 4.50547 14.6915H16.1805Z"
                                    fill="#959BA3"
                                />
                            </svg>
