                    <svg width="125" height="44" viewBox="0 0 125 44" fill="none" xmlns="http://www.w3.org/2000/svg">
                        <path
                            d="M8.70972 29.9998V12.6655H15.3455C16.5982 12.6655 17.6393 12.863 18.4687 13.258C19.3038 13.6474 19.9274 14.1806 20.3393 14.8577C20.7568 15.5348 20.9656 16.3022 20.9656 17.1599C20.9656 17.8653 20.8302 18.469 20.5593 18.9712C20.2885 19.4678 19.9245 19.8712 19.4675 20.1816C19.0104 20.4919 18.4998 20.7148 17.9355 20.8502V21.0195C18.5505 21.0534 19.1402 21.2424 19.7045 21.5866C20.2744 21.9252 20.7399 22.4048 21.101 23.0255C21.4622 23.6462 21.6427 24.3967 21.6427 25.2769C21.6427 26.1741 21.4255 26.981 20.991 27.6976C20.5565 28.4086 19.902 28.97 19.0274 29.382C18.1527 29.7939 17.0524 29.9998 15.7264 29.9998H8.70972ZM11.8499 27.376H15.227C16.3668 27.376 17.1878 27.1587 17.69 26.7243C18.1979 26.2841 18.4518 25.7199 18.4518 25.0315C18.4518 24.518 18.3248 24.0553 18.0709 23.6434C17.817 23.2258 17.4559 22.8985 16.9875 22.6615C16.5192 22.4189 15.9606 22.2976 15.3116 22.2976H11.8499V27.376ZM11.8499 20.0377H14.9562C15.4979 20.0377 15.9859 19.9389 16.4204 19.7414C16.8549 19.5383 17.1963 19.2534 17.4446 18.8866C17.6985 18.5142 17.8255 18.074 17.8255 17.5662C17.8255 16.8947 17.5885 16.3417 17.1145 15.9072C16.6461 15.4728 15.9493 15.2555 15.0239 15.2555H11.8499V20.0377Z"
                            fill="black"
                        />
                        <path fill-rule="evenodd" clip-rule="evenodd" d="M42.0933 15.1759H28.4844V12.6689H42.0933V15.1759Z" fill="#F66135" />
                        <path fill-rule="evenodd" clip-rule="evenodd" d="M42.0933 22.3389H28.4844V19.832H42.0933V22.3389Z" fill="#F66135" />
                        <path fill-rule="evenodd" clip-rule="evenodd" d="M42.0933 29.502H28.4844V26.9951H42.0933V29.502Z" fill="#F66135" />
                        <path
                            d="M106.669 30.7782H100.795V13.4438H106.787C108.508 13.4438 109.987 13.7909 111.222 14.4849C112.464 15.1733 113.417 16.1636 114.083 17.4558C114.749 18.748 115.082 20.2941 115.082 22.0941C115.082 23.8997 114.746 25.4515 114.075 26.7493C113.409 28.0471 112.447 29.043 111.189 29.7371C109.936 30.4311 108.429 30.7782 106.669 30.7782ZM103.935 28.0612H106.516C107.724 28.0612 108.731 27.8411 109.538 27.401C110.345 26.9552 110.952 26.2922 111.358 25.412C111.764 24.5261 111.967 23.4201 111.967 22.0941C111.967 20.768 111.764 19.6677 111.358 18.7931C110.952 17.9128 110.351 17.2555 109.555 16.821C108.765 16.3809 107.783 16.1608 106.61 16.1608H103.935V28.0612Z"
                            fill="black"
                        />
                        <path d="M97.3732 13.4438V30.7782H94.5801L86.4123 18.9709H86.2684V30.7782H83.1283V13.4438H85.9383L94.0977 25.2596H94.25V13.4438H97.3732Z" fill="black" />
                        <path
                            d="M80.1596 22.1112C80.1596 23.9789 79.8098 25.5786 79.1101 26.9103C78.416 28.2363 77.4681 29.252 76.2662 29.9573C75.0699 30.6627 73.7129 31.0153 72.195 31.0153C70.6771 31.0153 69.3172 30.6627 68.1153 29.9573C66.9191 29.2463 65.9711 28.2278 65.2714 26.9018C64.5774 25.5701 64.2303 23.9733 64.2303 22.1112C64.2303 20.2435 64.5774 18.6466 65.2714 17.3205C65.9711 15.9889 66.9191 14.9704 68.1153 14.265C69.3172 13.5597 70.6771 13.207 72.195 13.207C73.7129 13.207 75.0699 13.5597 76.2662 14.265C77.4681 14.9704 78.416 15.9889 79.1101 17.3205C79.8098 18.6466 80.1596 20.2435 80.1596 22.1112ZM77.0025 22.1112C77.0025 20.7964 76.7966 19.6876 76.3847 18.7848C75.9784 17.8763 75.4141 17.1908 74.6919 16.7281C73.9696 16.2597 73.1373 16.0255 72.195 16.0255C71.2527 16.0255 70.4204 16.2597 69.6981 16.7281C68.9758 17.1908 68.4087 17.8763 67.9968 18.7848C67.5906 19.6876 67.3874 20.7964 67.3874 22.1112C67.3874 23.4259 67.5906 24.5375 67.9968 25.446C68.4087 26.3488 68.9758 27.0344 69.6981 27.5028C70.4204 27.9655 71.2527 28.1968 72.195 28.1968C73.1373 28.1968 73.9696 27.9655 74.6919 27.5028C75.4141 27.0344 75.9784 26.3488 76.3847 25.446C76.7966 24.5375 77.0025 23.4259 77.0025 22.1112Z"
                            fill="black"
                        />
                        <path d="M47.681 13.4438H51.2275L55.4679 21.1122H55.6372L59.8777 13.4438H63.4241L57.1184 24.3116V30.7782H53.9867V24.3116L47.681 13.4438Z" fill="black" />
                    </svg>
