                            <svg width="20" height="20" viewBox="0 0 20 20" fill="none" xmlns="http://www.w3.org/2000/svg">
                                <path
                                    fill-rule="evenodd"
                                    clip-rule="evenodd"
                                    d="M11.075 2.11893L16.7833 6.12727C17.6708 6.75099 18.1993 7.76753 18.2 8.85227V14.7939C18.1978 15.7377 17.8207 16.6419 17.1519 17.3076C16.483 17.9734 15.577 18.3461 14.6333 18.3439H5.23329C4.28956 18.3461 3.38361 17.9734 2.71473 17.3076C2.04585 16.6419 1.66883 15.7377 1.66663 14.7939V8.85227C1.66733 7.76753 2.19582 6.75099 3.08329 6.12727L8.79163 2.11893C9.43321 1.51569 10.4334 1.51569 11.075 2.11893ZM16.268 16.4237C16.7024 15.9924 16.9478 15.4061 16.95 14.7939V8.85227C16.9383 8.1876 16.6101 7.5684 16.0666 7.1856L10.3583 3.17727L10.2666 3.1106C10.1789 3.02101 10.0587 2.97053 9.93329 2.97053C9.80787 2.97053 9.68773 3.02101 9.59996 3.1106L9.50829 3.17727L3.79996 7.1856C3.25647 7.5684 2.9283 8.1876 2.91663 8.85227V14.7939C2.91883 15.4061 3.16415 15.9924 3.59861 16.4237C4.03307 16.8551 4.62108 17.0961 5.23329 17.0939H14.6333C15.2455 17.0961 15.8335 16.8551 16.268 16.4237Z"
                                    fill="#959BA3"
                                />
                                <path
                                    d="M14.9916 9.17727L10.375 12.4023C10.2383 12.539 10.0506 12.6122 9.85749 12.6043C9.66434 12.5964 9.48332 12.508 9.35829 12.3606L4.87496 9.17727C4.69486 9.02151 4.44192 8.98161 4.22263 9.07437C4.00334 9.16713 3.8558 9.37642 3.84214 9.61413C3.82848 9.85184 3.95107 10.0767 4.15829 10.1939L8.57496 13.3439C8.93711 13.6811 9.41348 13.8687 9.90829 13.8689C10.3737 13.8571 10.8173 13.6696 11.15 13.3439L15.7083 10.1606C15.9703 9.96663 16.0393 9.60382 15.8666 9.32727C15.6647 9.047 15.2754 8.98027 14.9916 9.17727Z"
                                    fill="#959BA3"
                                />
                            </svg>
